<svg xmlns="http://www.w3.org/2000/svg" width="204" height="26" fill="none"><g fill="#F8F8F8" clip-path="url(#a)"><path d="m30.734 5.706 7.973 5.697 4.473-3.742L31.357 0H13.578L1.755 7.661l4.474 3.742L14.2 5.706h16.533z"/><path d="M38.706 11.403 22.465 24.982 6.227 11.402l-6.229 4.45L22.465 26l22.47-10.149-6.23-4.448zm30.766 4.891c-1.283 1.703-3.01 2.643-4.869 2.643-3.12 0-5.855-2.755-5.855-5.896s2.727-5.956 5.837-5.956c1.926 0 3.772.972 4.822 2.531l.084.128h2.241l-.196-.411c-1.17-2.437-4.02-4.137-6.93-4.137-4.42 0-7.885 3.437-7.885 7.826 0 4.39 3.546 7.804 7.904 7.804 2.883 0 5.485-1.578 6.96-4.221l.237-.426H69.56l-.087.115zM85.754 5.177c-4.402 0-7.982 3.546-7.982 7.904 0 4.358 3.654 7.745 7.982 7.745 4.327 0 8.003-3.511 8.003-7.826 0-4.314-3.59-7.823-8.003-7.823zm5.974 7.845c0 3.262-2.68 5.915-5.974 5.915S79.8 16.257 79.8 13.08c0-3.175 2.718-6.011 5.934-6.011s5.993 2.67 5.993 5.955v-.003zm22.765-2.599c0-2.304-1.513-4.99-5.778-4.99h-8.106V20.57h2.029V7.322h5.921c3.624 0 3.907 2.341 3.907 3.06 0 1.865-1.466 3.023-3.829 3.023h-1.989l5.37 7.166h2.549l-4.162-5.495c2.397-.401 4.088-2.287 4.088-4.65v-.003zm14.985-4.991h-8.455v15.139h2.029v-5.865h6.407c4.075 0 5.523-2.475 5.523-4.598 0-2.26-1.445-4.676-5.501-4.676h-.003zm3.474 4.636c0 1.64-1.277 2.745-3.179 2.745h-6.721V7.322h6.407c3.154 0 3.493 1.92 3.493 2.746zm10.516-4.636h-2.026v15.139h11.614v-1.893h-9.588V5.432zm18.082 0h-2.03v15.139h2.03V5.432zm19.923 11.494-9.522-11.494h-2.407v15.139h2.03V8.346l10.033 12.225h1.893V5.432h-2.027v11.494zm22.112-11.491h-2.547l-4.535 5.915-1.27 1.653-3.786 4.928V5.432h-2.03v15.139h2.544l4.542-5.915 4.535 5.915h2.547l-5.812-7.568 5.812-7.568z"/></g><defs><clipPath id="a"><path fill="#fff" d="M0 0h203.586v26H0z"/></clipPath></defs></svg>