<svg width="302" height="70" viewBox="0 0 302 70" fill="none" xmlns="http://www.w3.org/2000/svg">
<path d="M12.65 12.3599H30.68L7.45998 39.7999L6.97998 42.3699H31.28L31.92 38.6699H13.46L36.67 11.2299L37.15 8.6499H13.36L12.65 12.3599Z" fill="#8C9091"/>
<path d="M61.79 42.3699H84.85L85.49 38.6699H62.5L61.79 42.3699Z" fill="#8C9091"/>
<path d="M65.48 27.19H86.74L87.37 23.49H66.19L65.48 27.19Z" fill="#8C9091"/>
<path d="M67.27 12.3599H90.33L90.95 8.6499H67.98L67.27 12.3599Z" fill="#8C9091"/>
<path d="M138.73 34.8699L125.76 9.0299L125.57 8.6499H122.73L116.66 42.3699H120.49L125.21 16.1899L138.28 41.9999L138.47 42.3699H141.3L147.37 8.6499H143.45L138.73 34.8699Z" fill="#8C9091"/>
<path d="M173.56 42.3699H177.44L183.46 8.6499H179.59L173.56 42.3699Z" fill="#8C9091"/>
<path d="M213.49 12.3599H223.7L218.27 42.3699H222.15L227.58 12.3599H237.77L238.48 8.6499H214.2L213.49 12.3599Z" fill="#8C9091"/>
<path d="M289.91 8.6499L287.27 23.4299H270.44L273.13 8.6499H269.25L263.18 42.3699H267L269.79 27.1399H286.58L283.84 42.3699H287.72L293.78 8.6499H289.91Z" fill="#8C9091"/>
<path d="M285.79 60.87H285.85L286.95 54.22H6.22998L285.79 60.87Z" fill="url(#paint0_linear_1_2)"/>
<defs>
<linearGradient id="paint0_linear_1_2" x1="6.22998" y1="57.55" x2="286.95" y2="57.55" gradientUnits="userSpaceOnUse">
<stop stop-color="#1D1D1B"/>
<stop offset="1" stop-color="#4A4A49"/>
</linearGradient>
</defs>
</svg>
