<svg xmlns="http://www.w3.org/2000/svg" width="273" height="81" fill="none"><g fill="#fff" clip-path="url(#a)"><path d="M256.309 29.521v3.66h16.643v9.759h-28.881V8.295h28.147v9.76h-15.909v3.415h13.461v8.051h-13.461Zm-109.652-3.904c0 4.392 2.937 6.832 6.854 6.832 3.671 0 6.608-2.44 6.608-6.832 0-4.147-2.937-6.83-6.608-6.83-3.917 0-6.854 2.683-6.854 6.83Zm26.679-.244c0 10.491-7.832 18.299-19.825 18.299-11.994 0-20.071-7.32-20.071-18.298 0-10.003 8.322-17.81 20.071-17.81 11.503 0 19.825 7.806 19.825 17.81Zm-72.204 16.103 1.224-9.76c2.937.977 7.343 2.197 11.749 2.197 3.916 0 5.14-.976 5.14-2.196 0-.732-.49-1.22-1.224-1.464-.979-.244-3.672-.488-6.609-.976-2.692-.244-5.384-.976-7.342-2.196-2.693-1.707-3.672-4.88-3.672-7.807 0-7.32 6.119-11.71 15.665-11.71 5.14 0 9.79.975 13.217 2.439l-1.714 9.027c-2.692-.976-6.853-1.708-10.769-1.708-3.182 0-4.161.976-4.161 1.952 0 .732.245 1.22 1.224 1.464 1.468.488 4.161.488 6.608.976 2.693.244 5.14.976 6.853 1.952 2.693 1.707 4.161 4.635 4.161 7.807 0 6.831-4.161 12.199-15.664 12.199-5.63 0-11.259-.976-14.686-2.196Zm88.113-33.18v23.909h14.93V42.94h-27.657V8.295h12.727Zm9.79 0h14.686l4.405 11.954c.735 1.708 2.203 6.831 2.203 6.831l1.958-6.831 4.651-11.955h14.685L227.672 42.94h-14.685L199.035 8.295ZM53.894 54.65H27.461c-6.12 0-11.749-1.951-16.154-5.367a13.776 13.776 0 0 0-.735 4.392c0 4.635 1.958 8.783 5.14 11.71 2.937 3.172 7.098 4.88 11.749 4.88h26.433c4.65 0 8.812-1.708 11.749-4.88 3.181-2.927 4.895-7.075 4.895-11.71 0-1.464 0-2.928-.49-4.392-4.405 3.416-10.035 5.368-16.154 5.368ZM5.188 41.477c-1.958 3.66-3.182 7.807-3.182 12.199 0 6.831 2.692 13.174 7.587 17.81 4.65 4.88 11.014 7.563 17.868 7.563h26.433c6.854 0 13.217-2.683 17.868-7.563 4.895-4.636 7.587-10.979 7.587-17.81 0-4.392-1.224-8.54-3.182-12.2l-.49-.975.49-.976c1.958-3.66 3.182-8.051 3.182-12.199 0-6.831-2.692-13.174-7.587-17.81-4.65-4.88-11.014-7.563-17.868-7.563H27.461c-6.854 0-13.217 2.684-17.868 7.563-4.895 4.636-7.587 10.979-7.587 17.81 0 4.148 1.224 8.54 3.182 12.2l.49.975-.49.976Zm7.342 6.343c4.406 3.172 9.546 4.88 14.93 4.88h26.434c5.385 0 10.525-1.708 14.93-4.88l2.448-1.952.734 2.928c.49 1.708.735 3.172.735 4.88 0 4.88-1.958 9.759-5.63 13.174-3.426 3.66-8.322 5.612-13.217 5.612H27.461c-4.896 0-9.79-1.952-13.217-5.612-3.672-3.415-5.63-8.295-5.63-13.174 0-1.708.245-3.172.735-4.88l.734-2.928 2.447 1.952Zm56.294-14.638c-4.405-3.172-9.545-4.88-14.93-4.88H27.461c-5.385 0-10.525 1.708-14.93 4.88l-2.448 1.708-.734-2.684c-.49-1.708-.735-3.172-.735-4.88 0-4.88 1.958-9.759 5.63-13.174 3.426-3.66 8.321-5.612 13.217-5.612h26.433c4.895 0 9.79 1.952 13.217 5.612 3.672 3.415 5.63 8.295 5.63 13.174 0 1.708-.245 3.172-.735 4.88l-.734 2.684-2.448-1.708Zm-52.867 5.611c3.182-2.44 7.343-3.903 11.504-3.903h26.433c4.161 0 8.322 1.463 11.504 3.903l1.958 1.708-1.958 1.464c-3.182 2.684-7.343 4.147-11.504 4.147H27.461c-4.161 0-8.322-1.463-11.504-4.147L13.999 40.5l1.958-1.708ZM3.474 40.5C1.272 36.596.048 32.205.048 27.325c0-7.563 3.182-14.394 8.077-19.274C13.02 3.171 19.873 0 27.46 0h26.433c7.588 0 14.441 3.172 19.336 8.051 4.895 4.88 8.077 11.711 8.077 19.274 0 4.88-1.224 9.271-3.426 13.175 2.202 3.904 3.426 8.295 3.426 13.175 0 7.563-3.182 14.394-8.077 19.274C68.335 77.829 61.482 81 53.894 81H27.461c-7.588 0-14.441-3.172-19.336-8.051C3.23 68.069.048 61.238.048 53.675c0-4.88 1.224-9.271 3.426-13.175Zm7.833-8.783c4.405-3.416 10.035-5.368 16.154-5.368h26.433c6.12 0 11.749 1.952 16.154 5.368.49-1.464.49-2.928.49-4.392 0-4.635-1.713-8.783-4.895-11.71a15.913 15.913 0 0 0-11.749-5.124H27.461c-4.65 0-8.812 1.952-11.749 5.123-3.182 2.928-5.14 7.076-5.14 11.711 0 1.464.245 2.928.735 4.392ZM64.174 40.5c-2.937-2.196-6.364-3.416-10.28-3.416H27.461c-3.917 0-7.343 1.22-10.28 3.416 2.937 2.196 6.363 3.416 10.28 3.416h26.433c3.916 0 7.343-1.22 10.28-3.416Z"/><path d="M27.46 81c-2.937 0-5.384-2.44-5.384-5.368 0-2.927 2.447-5.367 5.385-5.367h29.126c.979-.244 1.713-.488 2.692-.732 0 0 .245-.244.49-.244.489 0 .489-.244.734-.244l.245-.244h.49c.733-.488 1.712-.976 2.447-1.464a7.435 7.435 0 0 0 1.958-1.952c.49-.243.49-.487.734-.487l.49-.488c.244-.244.244-.488.244-.488l.49-.488c.979-1.464 1.713-2.928 2.203-4.636.49-1.464.734-3.172.734-5.123 0-1.464 0-2.684-.245-3.904-.49-1.22-.734-2.44-1.469-3.66-.244-.243-.244-.243-.244-.487l-.245-.245c0-.243-.245-.487-.245-.487l-.245-.488-.244-.488-.245-.244-.245-.244-.245-.244c-.244-.244-.489-.732-.978-.976-1.224-1.464-2.938-2.684-4.896-3.66-2.203-.976-4.405-1.464-7.098-1.464H29.908c-2.692 0-5.14-2.44-5.14-5.367 0-2.928 2.448-5.368 5.14-5.368h23.986c4.161 0 8.077.976 11.749 2.684 3.671 1.708 6.853 4.148 9.3 7.32 2.693 3.171 4.65 7.563 4.896 8.539.49 1.22.49 1.707.734 2.44.49 2.195.734 4.147.734 6.343 0 2.927-.49 5.611-1.224 8.295-.979 2.684-2.202 5.367-3.916 7.563-.245.244-.245.488-.49.732-.244.244-.489.732-.734.732-.244.488-.489.732-.734.976l-.979.976c-.979.976-2.203 1.952-3.426 2.927-1.224.976-2.693 1.708-3.916 2.44h-.245l-.98.488-.978.488h-.245c-.245 0-.49.244-.734.244-1.469.488-2.938.732-4.406.976-1.469.244-2.937.488-4.406.488H27.461ZM53.895 0c2.937 0 5.385 2.44 5.385 5.367 0 2.928-2.448 5.124-5.385 5.124H27.461c-.98 0-1.958.244-2.693.244-.979.244-1.958.488-2.692.732-.245 0-.245 0-.49.244-.49 0-.49.244-.734.244l-.245.244h-.49c-.733.488-1.713.976-2.447 1.464a7.435 7.435 0 0 0-1.958 1.951c-.49.244-.49.244-.734.488l-.49.488c-.244.244-.244.488-.244.488l-.49.488c-.979 1.464-1.713 2.928-2.203 4.636-.49 1.464-.979 3.171-.979 5.123 0 1.464.245 2.684.49 3.904.49 1.22.734 2.44 1.468 3.66 0 .243.245.243.245.243v.489h.245c0 .243.245.487.245.487l.244.488.245.244c.49.732 0 0 .245.488l.245.244c.49.488.979 1.22 1.468 1.708 1.224 1.22 2.937 2.44 4.65 3.172 2.203.976 4.406 1.464 7.099 1.464h23.741c2.937 0 5.385 2.44 5.385 5.367 0 2.928-2.448 5.368-5.385 5.368H27.461c-4.161 0-8.077-.976-11.749-2.684-3.671-1.708-6.853-4.392-9.3-7.32C3.718 41.477 2.74 39.525.781 33.67c-.49-2.196-.734-4.148-.734-6.344 0-2.927.49-5.611 1.224-8.295.979-2.684 2.202-5.367 3.916-7.563.244-.244.244-.488.49-.732.244-.488.489-.732.733-.732.245-.488.49-.732.735-.976l.979-.976c.979-1.22 2.203-2.196 3.426-2.928 1.224-.975 2.693-1.707 3.916-2.44.735-.243.49-.243.735-.243l.49-.244.978-.488h.245c.245 0 .49-.244.734-.244 1.469-.488 2.937-.732 4.406-.976C24.523.244 25.992 0 27.46 0h26.433Zm52.377 54.163h.245c1.469 0 3.182 0 4.406.732.245 0 .489.243.734.243.49 0 .979-.243 1.224-.731.245-.244.245-.488.245-.732 0-.488-.245-.976-.735-1.22-1.958-.732-3.916-.976-5.874-.976-1.713 0-3.426.244-4.895.488-.979.488-1.713.732-1.958 1.708v13.418c0 .732.489.976.979 1.22 0 .244 0 .244.245.244 1.468.732 3.426.976 5.14.976 2.202 0 4.405-.244 6.363-1.22.49-.244.735-.732.735-1.22 0-.244 0-.488-.245-.732-.245-.487-.734-.732-1.224-.732-.245 0-.489.245-.734.245-.49.243-.979.487-1.469.487-1.468.244-2.447.488-3.182.488-1.468 0-2.447-.244-3.426-.488v-5.123h6.363c.49 0 1.469-.488 1.469-1.22 0-.976-.979-1.464-1.469-1.464h-6.363v-3.903c.979-.488 2.203-.488 3.426-.488Zm23.987 3.415c-.979-3.415-3.917-6.343-7.833-6.343-4.895 0-8.077 4.636-8.077 9.271v7.32c0 .975.735 1.463 1.469 1.463.734 0 1.468-.488 1.468-1.464v-6.831c0-3.416 1.714-6.831 5.14-6.831 3.182 0 5.14 2.927 5.14 6.587v7.075c0 .976.735 1.464 1.469 1.464.734 0 1.713-.488 1.713-1.464v-6.831c0-1.22-.245-2.196-.489-3.416Zm8.811-3.415h.245c1.468 0 2.937 0 4.405.732 0 0 .49.243.735.243.489 0 .979-.243 1.223-.731.245-.244.245-.488.245-.732 0-.488-.489-.976-.734-1.22-1.958-.732-3.916-.976-6.119-.976-1.469 0-3.182.244-4.895.488-.979.488-1.469.732-1.714 1.708v13.418c0 .732.49.976.979 1.22v.244c1.714.732 3.427.976 5.385.976 2.203 0 4.406-.244 6.364-1.22.245-.244.734-.732.734-1.22 0-.244 0-.488-.245-.732-.244-.487-.734-.732-1.223-.732-.245 0-.735.245-.735.245-.734.243-.979.487-1.468.487-1.469.244-2.448.488-3.427.488-1.224 0-2.203-.244-3.426-.488v-5.123h6.363c.734 0 1.469-.488 1.469-1.22 0-.976-.735-1.464-1.469-1.464h-6.363v-3.903c1.223-.488 2.447-.488 3.671-.488Zm23.497 12.687c-.979-.732-1.714-1.22-2.448-2.196l-2.937-3.66c.979-.244 1.958-.732 2.692-1.22.979-.976 1.714-2.196 1.714-3.416 0-3.903-4.896-5.123-7.588-5.123-1.958 0-3.427.244-5.14.732-.734 0-1.224.244-1.468 1.22v14.638c0 .976.734 1.464 1.468 1.464s1.713-.488 1.713-1.464v-6.587c.735 0 1.469 0 2.203.244H154c1.224 1.952 2.692 3.904 4.406 5.611.734.732 1.223 1.22 2.202 1.708.245.244.49.488.98.488.734 0 1.468-.732 1.468-1.464 0-.244-.245-.732-.489-.976ZM154 53.918c1.713 0 4.65.488 4.65 2.44 0 1.951-3.181 2.44-4.895 2.44-1.223 0-2.203-.245-3.182-.245v-4.147c1.224-.244 2.203-.488 3.427-.488Zm26.923 5.124h-5.139c-.735 0-1.469.488-1.469 1.464 0 .732.734 1.22 1.469 1.22h3.426c0 .488-.245.976-.489 1.464-1.224 2.196-3.427 3.66-5.875 3.66-1.223 0-2.447-.488-3.671-1.22-1.713-1.22-2.937-3.172-2.937-5.124 0-.488 0-.732.245-1.22 0-.488.245-1.22.489-1.708 1.224-2.195 3.672-3.415 5.874-3.415 1.714 0 3.427.488 4.651 1.708.245.243.489.487.979.487.489 0 .734-.243 1.224-.487.244-.244.244-.488.244-.976s0-.732-.244-.976c-1.224-.976-2.448-1.708-3.916-2.196-.98-.244-1.959-.488-2.938-.488-3.181 0-5.874 1.22-7.832 3.904-.979 1.463-1.713 3.171-1.713 5.123 0 .488 0 1.22.245 1.708 0 1.22.489 2.44 1.223 3.416 1.714 2.683 5.14 4.147 8.077 4.147.735 0 1.469 0 2.203-.244 2.448-.488 4.651-1.952 5.874-4.147.979-1.22 1.469-2.928 1.469-4.636 0-.976-.734-1.464-1.469-1.464Zm4.651 10.248c.734 0 1.468-.489 1.468-1.465V52.7c0-.732-.734-1.22-1.468-1.22s-1.714.488-1.714 1.22v15.126c0 .976.98 1.464 1.714 1.464Zm10.035-15.127h.489c1.469 0 2.937 0 4.161.732.245 0 .49.243.734.243.49 0 1.224-.243 1.469-.731v-.732c0-.488-.245-.976-.734-1.22-1.714-.732-3.916-.976-5.874-.976-1.469 0-3.182.244-4.896.488-.979.488-1.468.732-1.713 1.708v13.418c0 .732.245.976.979 1.22v.244c1.713.732 3.427.976 5.14.976 2.203 0 4.406-.244 6.364-1.22.489-.244.734-.732.734-1.22v-.732c-.49-.487-.979-.732-1.469-.732-.244 0-.489.245-.734.245-.489.243-.979.487-1.224.487-1.468.244-2.447.488-3.426.488-1.224 0-2.448-.244-3.427-.488v-5.123h6.364c.734 0 1.468-.488 1.468-1.22 0-.976-.734-1.464-1.468-1.464h-6.364v-3.903c1.224-.488 2.448-.488 3.427-.488Zm23.986 9.759c-.245-3.172-3.916-4.148-6.364-4.636-.244 0-.734 0-1.468-.244-2.203-.244-5.385-.732-5.385-2.44 0-1.951 3.427-2.44 5.14-2.44 1.958 0 3.671.245 5.14 1.22.245.245.489.245.734.245.979 0 1.714-.733 1.714-1.464 0-1.708-4.896-2.684-7.588-2.684-2.937 0-6.364.976-7.832 3.66-.245.487-.49.975-.49 1.463 0 3.66 4.406 4.392 6.609 4.88.244 0 .489 0 .979.244 1.958.244 5.629.732 5.629 2.44s-2.937 2.683-4.895 2.683c-1.469 0-2.937-.244-4.406-.975-.244 0-.489-.245-.734-.245-.489-.244-.979-.488-1.468-.488-.735 0-1.469.488-1.469 1.22 0 1.708 3.182 2.44 4.406 2.684 1.223.244 2.447.488 3.671.488 2.937 0 8.077-1.464 8.077-5.611Z"/></g><defs><clipPath id="a"><path fill="#fff" d="M0 0h273v81H0z"/></clipPath></defs></svg>